<svg xmlns="http://www.w3.org/2000/svg" width="18" height="18" viewBox="0 0 18 18">
    <g fill="#ffffff" fill-rule="evenodd">
        <path fill-rule="nonzero" d="M12.607.02H5.361a5.347 5.347 0 0 0-5.34 5.341v7.246a5.347 5.347 0 0 0 5.34 5.341h7.246a5.347 5.347 0 0 0 5.341-5.34V5.36a5.347 5.347 0 0 0-5.34-5.34zm3.538 12.587a3.537 3.537 0 0 1-3.538 3.538H5.361a3.537 3.537 0 0 1-3.537-3.538V5.361A3.537 3.537 0 0 1 5.36 1.824h7.246a3.537 3.537 0 0 1 3.538 3.537v7.246z"/>
        <path fill-rule="nonzero" d="M8.984 4.348a4.642 4.642 0 0 0-4.636 4.636 4.642 4.642 0 0 0 4.636 4.637 4.642 4.642 0 0 0 4.637-4.637 4.642 4.642 0 0 0-4.637-4.636zm0 7.47a2.833 2.833 0 1 1 0-5.667 2.833 2.833 0 0 1 0 5.667z"/>
        <circle cx="13.63" cy="4.382" r="1.111"/>
    </g>
</svg>
