<svg xmlns="http://www.w3.org/2000/svg" xmlns:xlink="http://www.w3.org/1999/xlink" width="120" height="91" viewBox="0 0 120 91">
    <defs>
        <path id="a" d="M8.848 90.98C3.238 81.882 0 71.164 0 59.69 0 26.724 26.724 0 59.69 0c32.967 0 59.691 26.724 59.691 59.69 0 11.474-3.237 22.192-8.848 31.29-10.51-17.042-29.35-28.401-50.843-28.401-21.492 0-40.331 11.359-50.842 28.4zM24.6 32.988v1.287c.7.057 1.376.102 2.03.134l.885.038c.366.013.712.019 1.039.019.629 0 1.09-.146 1.385-.439.295-.292.443-.75.443-1.373v-.477c0-.623-.148-1.081-.443-1.374-.295-.292-.756-.438-1.385-.438h-1.732c-.384 0-.577-.191-.577-.573v-.19c0-.382.193-.573.577-.573h2.992v-1.335h-3.376c-.674 0-1.163.151-1.467.453-.305.302-.457.787-.457 1.455v.286c0 .667.152 1.152.457 1.454.304.302.793.453 1.467.453h2.212v.859a.468.468 0 0 1-.13.348.477.477 0 0 1-.35.129c-.623 0-1.813-.048-3.57-.143zm13.847 1.287v-1.287c-.417.025-.765.047-1.044.066-.28.02-.507.032-.683.038l-.524.02a29.684 29.684 0 0 1-.943.019.452.452 0 0 1-.332-.13.468.468 0 0 1-.13-.347v-3.052c0-.382.192-.573.577-.573h3.079v-1.335h-3.464c-.673 0-1.162.151-1.467.453-.304.302-.457.787-.457 1.455v3.052c0 .623.148 1.08.443 1.373.295.293.757.439 1.385.439.943 0 2.13-.064 3.56-.19zm2.773-6.58v6.676h1.732v-2.003h1.347l1.106 2.003h1.876l-1.203-2.099c.385-.095.666-.29.842-.582.177-.292.265-.702.265-1.23v-.858c0-.668-.153-1.153-.457-1.455-.305-.302-.794-.453-1.467-.453h-4.04zm4.233 1.907v.858c0 .382-.192.572-.577.572h-1.924V29.03h1.924c.385 0 .577.191.577.573zm9.027-.096v3.052c0 .382-.192.573-.577.573h-1.636c-.384 0-.577-.191-.577-.573v-3.052c0-.381.193-.572.577-.572h1.636c.385 0 .577.19.577.572zm1.732 3.052v-3.052c0-.667-.153-1.152-.457-1.454-.305-.302-.794-.453-1.467-.453h-2.405c-.674 0-1.163.15-1.467.453-.305.302-.457.787-.457 1.454v3.052c0 .668.152 1.153.457 1.455.304.302.793.453 1.467.453h2.405c.673 0 1.162-.151 1.467-.453.304-.302.457-.787.457-1.455zm4.697.477v-5.34h-1.731v6.676h5.243v-1.336h-3.512zm7.92 0v-5.34H67.1v6.676h5.242v-1.336H68.83zm14.35 1.336v-5.342h2.02v-1.335h-5.771v1.335h2.02v5.342h1.732zm9.028-4.865v3.052c0 .382-.193.573-.578.573h-1.635c-.385 0-.577-.191-.577-.573v-3.052c0-.381.192-.572.577-.572h1.635c.385 0 .578.19.578.572zm1.731 3.052v-3.052c0-.667-.152-1.152-.457-1.454-.304-.302-.793-.453-1.467-.453H89.61c-.673 0-1.162.15-1.467.453-.305.302-.457.787-.457 1.454v3.052c0 .668.152 1.153.457 1.455.305.302.794.453 1.467.453h2.405c.674 0 1.163-.151 1.467-.453.305-.302.457-.787.457-1.455zM35.45 47.425v9.3h4.33V40.032h-4.57l-4.81 8.823-4.81-8.823h-4.57v16.691h4.33v-9.299l3.366 5.961h3.367l3.367-5.96zm12.727 9.3l1.082-2.981h6.012l1.083 2.98h4.69l-6.374-16.69h-4.81l-6.373 16.69h4.69zm2.164-6.081l1.924-5.603 1.924 5.603h-3.848zm14.41-10.61v16.69h4.33v-5.007h3.366l2.766 5.007h4.69l-3.007-5.245c.962-.239 1.664-.724 2.105-1.455.44-.731.661-1.756.661-3.076v-2.146c0-1.669-.38-2.88-1.142-3.636-.762-.755-1.984-1.133-3.668-1.133h-10.1zm10.582 4.768v2.146c0 .954-.48 1.43-1.443 1.43h-4.81v-5.006h4.81c.962 0 1.443.477 1.443 1.43zm8.734 8.465v3.219c1.748.143 3.44.254 5.075.334l2.212.095c.914.032 1.78.048 2.598.048 1.571 0 2.726-.366 3.463-1.097.738-.731 1.106-1.876 1.106-3.434V51.24c0-1.558-.368-2.702-1.106-3.433-.737-.732-1.892-1.097-3.463-1.097h-4.33c-.961 0-1.442-.477-1.442-1.43v-.478c0-.953.48-1.43 1.443-1.43h7.48v-3.339H88.66c-1.684 0-2.906.378-3.668 1.133-.761.755-1.142 1.967-1.142 3.636v.716c0 1.669.38 2.88 1.142 3.636.762.755 1.984 1.132 3.668 1.132h5.531v2.146c0 .366-.108.656-.324.87-.217.215-.51.323-.878.323-1.555 0-4.53-.12-8.923-.358z"/>
    </defs>
    <use fill="#ffffff" fill-rule="evenodd" xlink:href="#a"/>
</svg>
