<svg xmlns="http://www.w3.org/2000/svg" width="18" height="14" viewBox="0 0 18 14">
    <path fill="#ffffff" fill-rule="nonzero" d="M18 1.657a7.964 7.964 0 0 1-2.126.558A3.545 3.545 0 0 0 17.497.263c-.713.407-1.5.694-2.34.855A3.777 3.777 0 0 0 12.462 0c-2.043 0-3.688 1.587-3.688 3.533 0 .28.025.55.085.806-3.068-.143-5.782-1.55-7.606-3.695A3.441 3.441 0 0 0 .748 2.43c0 1.223.658 2.307 1.64 2.935A3.77 3.77 0 0 1 .72 4.93v.039C.72 6.686 2 8.11 3.677 8.439c-.3.08-.628.117-.968.117-.236 0-.475-.013-.699-.06.479 1.399 1.835 2.427 3.449 2.46a7.628 7.628 0 0 1-4.576 1.507c-.302 0-.593-.013-.883-.048A10.728 10.728 0 0 0 5.661 14c6.79 0 10.503-5.385 10.503-10.052 0-.156-.006-.307-.014-.457A7.196 7.196 0 0 0 18 1.657z"/>
</svg>
