<svg xmlns="http://www.w3.org/2000/svg" width="20" height="12" viewBox="0 0 20 12">
    <path fill="#ffffff" fill-rule="evenodd" d="M9.785 11.362h1.196s.36-.04.545-.238c.17-.183.164-.526.164-.526s-.023-1.604.722-1.84c.733-.233 1.676 1.55 2.675 2.236.755.519 1.33.405 1.33.405l2.67-.037s1.397-.086.735-1.185c-.055-.09-.386-.812-1.986-2.298-1.675-1.554-1.45-1.303.567-3.991C19.63 2.25 20.123 1.25 19.969.822c-.146-.408-1.05-.3-1.05-.3l-3.007.019s-.223-.03-.388.068c-.162.097-.266.323-.266.323s-.476 1.267-1.11 2.345c-1.34 2.274-1.875 2.394-2.094 2.253-.51-.33-.382-1.322-.382-2.028 0-2.203.334-3.122-.65-3.36-.328-.079-.568-.131-1.404-.14-1.073-.01-1.982.004-2.496.256-.342.167-.606.54-.445.562.199.027.649.121.888.446.308.42.297 1.361.297 1.361s.177 2.594-.414 2.917c-.405.22-.961-.23-2.155-2.294-.612-1.056-1.074-2.224-1.074-2.224S4.13.807 3.972.69C3.779.549 3.509.504 3.509.504L.652.523S.222.535.065.72c-.14.166-.01.51-.01.51s2.236 5.234 4.77 7.871c2.322 2.419 4.96 2.26 4.96 2.26z"/>
</svg>
